<svg xmlns="http://www.w3.org/2000/svg" width="18" height="18" viewBox="0 0 18 18">
    <path fill="#44599C" fill-rule="evenodd" d="M9.322 3.075a.75.75 0 0 0-.75.09L4.989 6H2.25a.75.75 0 0 0-.75.75v4.5c0 .414.336.75.75.75h2.737l3.548 2.835A.75.75 0 0 0 9 15a.684.684 0 0 0 .322-.075.75.75 0 0 0 .428-.675V3.75a.75.75 0 0 0-.428-.675zM8.25 12.69l-2.535-2.025a.75.75 0 0 0-.465-.165H3v-3h2.25a.75.75 0 0 0 .465-.165L8.25 5.31v7.38zm6.495-7.935A.753.753 0 0 0 13.68 5.82a4.5 4.5 0 0 1-.285 6.63.75.75 0 0 0 .48 1.32.75.75 0 0 0 .48-.172 6 6 0 0 0 .39-8.843zm-2.122 2.123a.753.753 0 1 0-1.066 1.065c.282.28.441.66.443 1.057a1.5 1.5 0 0 1-.533 1.148.75.75 0 0 0-.097 1.057.75.75 0 0 0 1.058.09A3 3 0 0 0 13.5 9a3.045 3.045 0 0 0-.877-2.122z"/>
</svg>
