<svg xmlns="http://www.w3.org/2000/svg" width="17" height="13" viewBox="0 0 17 13">
    <path fill="#16181D" fill-rule="evenodd" d="M13.936 3.376A5.6 5.6 0 0 0 3.248 4.888 3.2 3.2 0 0 0 4 11.2a.8.8 0 0 0 0-1.6 1.6 1.6 0 1 1 0-3.2.8.8 0 0 0 .8-.8 4 4 0 0 1 7.784-1.288.8.8 0 0 0 .624.536A2.4 2.4 0 0 1 13.4 9.52a.801.801 0 1 0 .4 1.552 4 4 0 0 0 .136-7.696zM9.368 5.032a.8.8 0 0 0-.264-.168.8.8 0 0 0-.608 0 .8.8 0 0 0-.264.168l-2.4 2.4a.803.803 0 1 0 1.136 1.136L8 7.528V12a.8.8 0 1 0 1.6 0V7.528l1.032 1.04a.8.8 0 0 0 1.136 0 .8.8 0 0 0 0-1.136l-2.4-2.4z"/>
</svg>
